<svg
    id="dynamicfavicon"
    data-name="dynamicfavicon"
    xmlns="http://www.w3.org/2000/svg"
    viewBox="0 0 100 100">
    <defs>
        <style>
            .box {
                fill: none;
            }
            .fg {
                fill: #000;
            }
            <!-- .box {
                fill: #705b69;
            }
            .fg {
                fill: none;
                stroke: #e7dac1;
                stroke-linecap: round;
                stroke-linejoin: round;
                stroke-width: 2.48px;
            } -->
            @media (prefers-color-scheme: light) {
                <!-- .box {
                    fill: #FFF;
                } -->
                <!-- .fg {
                    stroke: #000;
                } -->
                .fg {
                    fill: #000;
                }
            }
            @media (prefers-color-scheme: dark) {
                <!-- .box {
                    fill: #000;
                } -->
                <!-- .fg {
                    stroke: #FFF;
                } -->
                .fg {
                    fill: #FFF
                }
            }
        </style>
    </defs>
    <rect class="box" width="100" height="100" rx="13.76"/>
    <path class="fg" d="M48.25,59.91V47.75H66a16.9,16.9,0,0,1-3.81,12.37c-.27.33-5.92,6.68-14.27,5.5a16.33,16.33,0,0,1-10.26-6,16.54,16.54,0,0,1-3.92-12,16.22,16.22,0,0,1,5-10,17.89,17.89,0,0,1,12-4.64c5.51-.18,11,0,16.55,0a10.53,10.53,0,0,0,9.52-10.68,10,10,0,0,0-4.61-8c-3.48-2.35-7-2-11.06-2l-9.52,0H48.38c-4.67,0-9.29-.3-13.68,1.53a19.26,19.26,0,0,0-4.85,3c-3.82,3.19-6.71,8-6.67,13,.06,6.27,0,12.55,0,18.82V76.31a12.59,12.59,0,0,0,25.06.21V66.78"/>
</svg>