<?xml version="1.0" standalone="no"?>
<!DOCTYPE svg PUBLIC "-//W3C//DTD SVG 20010904//EN"
 "http://www.w3.org/TR/2001/REC-SVG-20010904/DTD/svg10.dtd">
<svg version="1.0" xmlns="http://www.w3.org/2000/svg"
 width="700.000000pt" height="700.000000pt" viewBox="0 0 700.000000 700.000000"
 preserveAspectRatio="xMidYMid meet">
<metadata>
Created by potrace 1.14, written by Peter Selinger 2001-2017
</metadata>
<g transform="translate(0.000000,700.000000) scale(0.100000,-0.100000)"
fill="#000000" stroke="none">
<path d="M2899 6136 c-2 -2 -33 -6 -69 -9 -265 -25 -477 -105 -680 -259 -255
-193 -428 -444 -502 -732 -21 -80 -21 -95 -23 -1794 -1 -1024 2 -1733 7 -1760
44 -222 156 -404 330 -540 85 -66 140 -97 239 -133 357 -130 761 -12 996 291
60 78 103 155 131 235 45 131 49 179 48 584 l-1 384 -80 17 c-225 48 -401 144
-566 309 -243 243 -363 516 -368 831 -7 468 311 900 782 1060 204 70 248 73
1002 75 550 1 637 3 686 18 309 90 530 361 543 670 13 272 -127 509 -384 654
-84 48 -164 72 -300 93 -50 8 -1783 13 -1791 6z"/>
<path d="M3379 3631 c-3 -141 -1 -1223 3 -1227 3 -3 48 -6 99 -6 231 -3 440
64 659 210 261 175 429 454 476 790 8 56 11 196 6 231 l-4 28 -619 0 -619 0
-1 -26z"/>
</g>
</svg>
